<svg xmlns="http://www.w3.org/2000/svg" width="220" height="65" viewBox="0 0 220 65">
  <defs>
    <!-- Background Gradient -->
    <linearGradient id="bgGrad_LinkedIn" x1="0%" y1="0%" x2="100%" y2="100%">
      <stop offset="0%" stop-color="#1A1A1A" />
      <stop offset="100%" stop-color="#050505" />
    </linearGradient>
    
    <!-- Cyberpunk Top Border Gradient -->
    <linearGradient id="cyber_LinkedIn" x1="0%" y1="0%" x2="100%" y2="0%">
      <stop offset="0%" stop-color="#00E5FF" stop-opacity="0.2"/>
      <stop offset="50%" stop-color="#0077B5" stop-opacity="1"/>
      <stop offset="100%" stop-color="#00E5FF" stop-opacity="0.2"/>
    </linearGradient>
    
    <!-- Tech Dots Pattern -->
    <pattern id="dots" x="0" y="0" width="10" height="10" patternUnits="userSpaceOnUse">
      <circle fill="#ffffff" fill-opacity="0.03" cx="2" cy="2" r="1"></circle>
    </pattern>
  </defs>

  <!-- Main Card Body -->
  <rect x="0" y="4" width="220" height="57" rx="6" fill="url(#bgGrad_LinkedIn)" stroke="#222" stroke-width="1" />
  
  <!-- Overlay Pattern -->
  <rect x="1" y="5" width="218" height="55" rx="5" fill="url(#dots)" />

  <!-- Neon Top Border Accent -->
  <rect x="1" y="4" width="218" height="2" fill="url(#cyber_LinkedIn)" />
  
  <!-- Subtle Bottom Glow Line -->
  <rect x="40" y="60" width="140" height="1" fill="#0077B5" fill-opacity="0.4" />

  <!-- Logo Background Circle -->
  <circle cx="35" cy="32.5" r="16" fill="#0077B5" fill-opacity="0.1" stroke="#0077B5" stroke-opacity="0.3" stroke-width="1"/>

  <!-- Icon -->
  <g transform="translate(23, 20.5) scale(0.98)">
    <path d="M20.447 20.452h-3.554v-5.569c0-1.328-.027-3.037-1.852-3.037-1.853 0-2.136 1.445-2.136 2.939v5.667H9.351V9h3.414v1.561h.046c.477-.9 1.637-1.85 3.37-1.85 3.601 0 4.267 2.37 4.267 5.455v6.286zM5.337 7.433a2.062 2.062 0 01-2.063-2.065 2.064 2.064 0 112.063 2.065zm1.782 13.019H3.555V9h3.564v11.452zM22.225 0H1.771C.792 0 0 .774 0 1.729v20.542C0 23.227.792 24 1.771 24h20.451C23.2 24 24 23.227 24 22.271V1.729C24 .774 23.2 0 22.222 0h.003z" fill="#0077B5" />
  </g>
  
  <!-- Text -->
  <text x="68" y="38" font-family="'JetBrains Mono', 'Segoe UI', Courier, monospace" font-size="15" fill="#E6E6E6" font-weight="700" letter-spacing="2.5">LINKEDIN</text>
  
  <!-- Tech Accents -->
  <rect x="205" y="27" width="2" height="10" fill="#0077B5" fill-opacity="0.6"/>
  <rect x="210" y="30" width="2" height="4" fill="#0077B5" fill-opacity="0.4"/>
</svg>